<?xml version="1.0" encoding="UTF-8"?>
<svg width="310px" height="70px" viewBox="0 0 310 70" version="1.1" xmlns="http://www.w3.org/2000/svg" xmlns:xlink="http://www.w3.org/1999/xlink">
    <title>Untitled</title>
    <g id="Page-1" stroke="none" stroke-width="1" fill="none" fill-rule="evenodd">
        <path d="M30.08,69.52 C49.12,69.52 57.28,54.56 57.28,45.44 C57.28,40.48 54.72,36.96 47.84,36.96 C45.2,36.96 40.72,36.8 36.8,36.8 C34.16,36.8 30.72,36.8 30.72,41.04 C30.72,43.36 32.16,45.68 34.72,45.68 L34.88,45.68 C39.28,45.52 43.28,45.44 44.08,45.44 L44.24,45.44 C45.68,45.44 46.88,46.16 46.88,47.68 C46.88,50 43.28,60.24 30.08,60.24 C16.4,60.24 9.52,49.28 9.52,38.64 C9.52,28.4 16.32,16.16 30.32,16.16 C35.36,16.16 40.4,18 43.52,21.84 C44.72,23.36 46.16,24 47.6,24 C50.16,24 52.48,21.76 52.48,19.04 C52.48,14.72 43.84,7.36 31.12,7.36 C11.6,7.36 0.16,22.8 0.16,39.04 C0.16,57.52 14,69.52 30.08,69.52 Z M82.84,68.08 C87.72,68.08 93.08,65.6 95.48,61.52 C95.56,61.36 95.72,61.28 95.72,61.28 C95.88,61.28 95.88,61.36 95.96,61.6 C97.08,66 101.08,67.12 101.56,67.12 C103,67.12 103.96,65.76 103.96,64.64 C103.96,64 103.72,63.36 103.08,63.04 C99.88,61.36 98.6,59.76 98.6,53.12 C98.6,50.48 98.76,46.88 99,44.24 C99.08,43.44 99.08,42.72 99.08,42 C99.08,33.04 94.04,29.76 86.6,29.76 C79.72,29.76 73,33.2 73,36.24 C73,37.52 74.04,38.4 75.24,38.4 C75.8,38.4 76.44,38.16 76.92,37.6 C78.76,35.6 81.96,33.76 86.28,33.76 C92.76,33.76 94.6,37.2 94.6,41.6 C94.6,42 94.52,42.48 94.52,42.88 C94.52,43.44 94.2,43.68 93.24,43.84 C89.88,44.4 83.4,45.6 78.44,47.12 C72.52,48.96 69.88,53.04 69.88,57.04 C69.88,62.56 74.76,68.08 82.84,68.08 Z M82.76,63.84 C77.4,63.84 74.2,60.48 74.2,57.12 C74.2,51.52 80.84,49.92 93.4,47.92 L93.64,47.92 C94.2,47.92 94.44,48.16 94.44,48.8 C94.44,49.76 94.36,50.64 94.36,51.52 C94.36,58.32 90.12,63.84 82.76,63.84 Z M122.08,67.28 C123.36,67.28 124.56,66.48 124.56,64.8 L124.56,64.72 C124.483556,59.2924444 124.407111,49.8473086 124.400467,40.3632145 L124.40089,36.8135469 C124.409846,25.5241278 124.484923,14.8135385 124.56,11.36 L124.56,11.28 C124.56,9.68 123.36,8.88 122.16,8.88 C120.88,8.88 119.6,9.68 119.6,11.44 L119.6,11.52 C119.76,14.8 119.76,25.28 119.76,36.32 C119.76,47.28 119.76,58.96 119.6,64.72 L119.6,64.8 C119.6,66.48 120.8,67.28 122.08,67.28 Z M147.88,67.28 C149.16,67.28 150.36,66.48 150.36,64.8 L150.36,64.72 C150.283556,59.2924444 150.207111,49.8473086 150.200467,40.3632145 L150.20089,36.8135469 C150.209846,25.5241278 150.284923,14.8135385 150.36,11.36 L150.36,11.28 C150.36,9.68 149.16,8.88 147.96,8.88 C146.68,8.88 145.4,9.68 145.4,11.44 L145.4,11.52 C145.56,14.8 145.56,25.28 145.56,36.32 C145.56,47.28 145.56,58.96 145.4,64.72 L145.4,64.8 C145.4,66.48 146.6,67.28 147.88,67.28 Z M185.92,68.08 C196,68.08 201.6,62 201.6,60.16 C201.6,58.88 200.4,57.84 199.2,57.84 C198.64,57.84 198.08,58.08 197.6,58.56 C195.12,61.36 191.84,63.84 186,63.84 C178.32,63.84 172.56,58.48 172.56,49.76 C172.56,48.64 172.72,48.32 173.52,48.32 C175.165217,48.32 181.21448,48.3899055 186.897499,48.3990236 L189.621119,48.3995604 C191.972595,48.3975087 194.084706,48.3858824 195.6,48.32 C199.6,48.24 201.44,46 201.44,42.96 C201.44,38.4 196.64,29.84 185.68,29.84 C176.24,29.84 167.84,37.52 167.84,49.2 C167.84,60.48 175.76,68.08 185.92,68.08 Z M183.2,44.48 C173.92,44.48 173.2,44.48 173.2,43.68 C173.2,40.72 178.08,33.84 185.76,33.84 C193.92,33.84 196.72,39.84 196.72,42.16 C196.72,43.44 196,44.32 194.08,44.4 C191.84,44.48 187.36,44.48 183.2,44.48 Z M220.6,67.68 C221.8,67.68 222.92,66.96 222.92,65.52 L222.92,65.44 C222.858462,62.4246154 222.84426,59.5039053 222.840983,56.823523 L222.840787,51.6768805 C222.843673,48.4163265 222.857143,45.7942857 222.92,44.16 C223.08,38 229.4,34.4 235.08,34.4 C236.68,34.4 237.56,33.2 237.56,32.08 C237.56,30.96 236.76,29.92 235.08,29.92 C234.12,29.92 226.92,30.4 223.4,35.28 C223.32,35.44 223.16,35.6 223.08,35.6 C223.08,35.6 223,35.44 223,35.2 C223,34.08 223.08,33.52 223.08,32.32 C223.08,30.8 221.88,30.08 220.68,30.08 C219.48,30.08 218.2,30.88 218.2,32.16 L218.2,32.24 C218.28,35.76 218.36,40 218.36,44.48 C218.36,51.36 218.2,58.88 218.04,65.36 L218.04,65.44 C218.04,66.88 219.32,67.68 220.6,67.68 Z M255.6,67.6 C256.88,67.6 258.16,66.8 258.16,65.2 L258.16,65.12 C258.08381,60.8533333 258.007619,55.2805442 258.000536,49.8528798 L258.000727,47.8967901 C258.008889,41.4409877 258.084444,35.4133333 258.16,32.24 L258.16,32.16 C258.16,30.72 256.88,30 255.68,30 C254.4,30 253.12,30.8 253.12,32.24 L253.12,32.32 C253.2,34.56 253.2,37.84 253.2,41.6 C253.2,49.04 253.12,58.4 253.12,65.2 C253.12,66.8 254.4,67.6 255.6,67.6 Z M288.84,68.08 C293.72,68.08 299.08,65.6 301.48,61.52 C301.56,61.36 301.72,61.28 301.72,61.28 C301.88,61.28 301.88,61.36 301.96,61.6 C303.08,66 307.08,67.12 307.56,67.12 C309,67.12 309.96,65.76 309.96,64.64 C309.96,64 309.72,63.36 309.08,63.04 C305.88,61.36 304.6,59.76 304.6,53.12 C304.6,50.48 304.76,46.88 305,44.24 C305.08,43.44 305.08,42.72 305.08,42 C305.08,33.04 300.04,29.76 292.6,29.76 C285.72,29.76 279,33.2 279,36.24 C279,37.52 280.04,38.4 281.24,38.4 C281.8,38.4 282.44,38.16 282.92,37.6 C284.76,35.6 287.96,33.76 292.28,33.76 C298.76,33.76 300.6,37.2 300.6,41.6 C300.6,42 300.52,42.48 300.52,42.88 C300.52,43.44 300.2,43.68 299.24,43.84 C295.88,44.4 289.4,45.6 284.44,47.12 C278.52,48.96 275.88,53.04 275.88,57.04 C275.88,62.56 280.76,68.08 288.84,68.08 Z M288.76,63.84 C283.4,63.84 280.2,60.48 280.2,57.12 C280.2,51.52 286.84,49.92 299.4,47.92 L299.64,47.92 C300.2,47.92 300.44,48.16 300.44,48.8 C300.44,49.76 300.36,50.64 300.36,51.52 C300.36,58.32 296.12,63.84 288.76,63.84 Z" id="Galleria" fill="#000000" fill-rule="nonzero"></path>
        <g id="diaphragm" transform="translate(243.000000, 0.000000)" fill-rule="nonzero">
            <path d="M20.3697174,3 L14,7.85878176 L24.6728387,16 C24.8863957,15.0516871 25,14.0632828 25,13.047466 C25,8.98174298 23.1889182,5.35216474 20.3697174,3 L20.3697174,3 Z" id="Path" fill="#2CB77C"></path>
            <path d="M19,1.86875135 C17.1635906,0.683578398 15.0073651,0 12.7029275,0 C10.2263176,0 7.92121702,0.789915041 6,2.14310389 L8.41476803,10 L19,1.86875135 Z" id="Path" fill="#34C5EF"></path>
            <path d="M4.59716126,3 C1.7841262,5.32474908 0,8.76548459 0,12.59875 C0,13.7766368 0.16905234,14.9172151 0.484001284,16 L9,16 L4.59716126,3 Z" id="Path" fill="#520C4D"></path>
            <path d="M1,17 C2.89453003,21.5410914 7.27280358,24.7838182 12.4157579,25 L15,17 L1,17 Z" id="Path" fill="#DF1E5A"></path>
            <path d="M13,25 C18.0554713,24.5954545 22.2929597,21.2997509 24,16.7990643 L17.2905304,12 L13,25 Z" id="Path" fill="#ECB32E"></path>
        </g>
    </g>
</svg>